<?xml version="1.0" encoding="utf-8"?>
<!-- Svg Vector Icons : http://www.onlinewebfonts.com/icon -->
<!DOCTYPE svg PUBLIC "-//W3C//DTD SVG 1.1//EN" "http://www.w3.org/Graphics/SVG/1.1/DTD/svg11.dtd">
<svg version="1.1" xmlns="http://www.w3.org/2000/svg" xmlns:xlink="http://www.w3.org/1999/xlink" x="0px" y="0px" viewBox="0 0 1000 1000" enable-background="new 0 0 1000 1000" xml:space="preserve">
<metadata> Svg Vector Icons : http://www.onlinewebfonts.com/icon </metadata>
<g><path d="M988.5,172.1c-2.5-5-7.6-8.1-13.4-8.1c-0.7,0-1.3,0-1.9,0.1l-37.8,1.6l31.1-29.5l0.7-0.4l8.3-9.8l-4.4-8.7c-2.5-5-7.7-8.1-13.3-8.1c-1.4,0-2.7,0.2-3.7,0.4l-102,18.6c-1.9-2.4-3.7-4.8-5.7-7.1c-35.9-42.9-84.3-65.5-139.9-65.5c-13.9,0-28.4,1.4-43.2,4.2c-103.5,19.7-154,98-207.5,180.9C384.3,351.5,310.4,466,98.4,466c-18.2,0-37.3-0.9-57-2.6c-2-0.2-3.9-0.3-5.6-0.3c-11,0-18.8,3.6-22.9,10.7c-6.3,10.7-0.2,21.9,2.8,27.3l0.4,0.7c39.9,73.6,100.2,136.8,174.6,182.6c66.5,41.1,143.3,66.2,220.7,74v151c0,19.3,15.8,34.9,35.2,34.9H529c2.3,0,4.6-0.3,6.8-0.7c2.2,0.5,4.6,0.7,6.9,0.7h82.6c10.5,0,20.8-4.6,27.6-12.5c6.1-7.1,8.7-15.8,7.3-24.6c-3.7-24.4-36.1-33.1-65.3-33.1c-6.6,0-19,0.5-31.6,3.7l9.2-127.5c9.7-1.9,19.5-3.9,29.3-6.3c134.7-32.5,209.2-120.5,247.9-188.7c47.7-83.9,68.7-185.8,57.5-279.7c-0.9-7.9-2.1-15.6-3.4-23.1l78.5-61.2c2.9-1.7,5.2-4.3,6.5-7.4C990.5,180.3,990.3,175.8,988.5,172.1z M508.7,874.6c-2.9-0.2-6.5-0.3-9.5-0.3c-6.6,0-19.3,0.5-31.9,3.7l8.8-117.1c10.7-0.2,21.1-0.8,32.6-1.6L508.7,874.6L508.7,874.6z M404.8,587.3c-44.2,31-91.6,33.8-118.4-12.7c-29.7,9.8-61.7,6.3-75.3-21c-4.3-8.6,2.2-15.7,6.3-15.9c150.1-7.6,286.3-124.8,340.9-248.3c4-9.1,16.3-10.2,18.7-1.5C620.3,446.3,568.8,640.2,404.8,587.3z M704.7,261.3c-26.4,0-47.8-21.4-47.8-47.8c0-26.4,21.4-47.8,47.8-47.8s47.8,21.4,47.8,47.8C752.5,239.8,731.1,261.3,704.7,261.3z"/><g></g><g></g><g></g><g></g><g></g><g></g><g></g><g></g><g></g><g></g><g></g><g></g><g></g><g></g><g></g></g>
</svg>